<?xml version="1.0" encoding="UTF-8"?>
<!DOCTYPE svg PUBLIC "-//W3C//DTD SVG 1.1//EN" "http://www.w3.org/Graphics/SVG/1.1/DTD/svg11.dtd">
<svg xmlns="http://www.w3.org/2000/svg" version="1.1" width="698px" height="1266px" style="shape-rendering:geometricPrecision; text-rendering:geometricPrecision; image-rendering:optimizeQuality; fill-rule:evenodd; clip-rule:evenodd" xmlns:xlink="http://www.w3.org/1999/xlink">
<g><path style="opacity:0.901" fill="#6703ff" d="M -0.5,18.5 C 105.707,18.2171 205.04,43.8838 297.5,95.5C 296.262,95.81 296.262,96.31 297.5,97C 295.833,97.6667 294.167,97.6667 292.5,97C 293.833,96.3333 293.833,95.6667 292.5,95C 290.553,94.0087 288.553,93.6753 286.5,94C 288.871,96.1838 288.704,98.3505 286,100.5C 285.329,99.7476 284.496,99.4142 283.5,99.5C 194.541,53.2603 99.8747,29.5937 -0.5,28.5C -0.5,25.1667 -0.5,21.8333 -0.5,18.5 Z"/></g>
<g><path style="opacity:0.896" fill="#6907ff" d="M 297.5,95.5 C 304.766,98.8008 311.766,102.634 318.5,107C 327.913,112.695 336.913,118.862 345.5,125.5C 342.632,125.915 340.465,124.915 339,122.5C 337.75,123.573 336.416,123.573 335,122.5C 332.637,123.702 330.803,125.368 329.5,127.5C 314.408,117.735 299.074,108.401 283.5,99.5C 284.496,99.4142 285.329,99.7476 286,100.5C 288.704,98.3505 288.871,96.1838 286.5,94C 288.553,93.6753 290.553,94.0087 292.5,95C 293.833,95.6667 293.833,96.3333 292.5,97C 294.167,97.6667 295.833,97.6667 297.5,97C 296.262,96.31 296.262,95.81 297.5,95.5 Z"/></g>
<g><path style="opacity:0.891" fill="#6b0afe" d="M 345.5,125.5 C 356.211,132.031 366.544,139.198 376.5,147C 388.655,156.659 400.322,166.825 411.5,177.5C 410.504,177.586 409.671,177.252 409,176.5C 409.933,181.001 409.266,181.334 407,177.5C 405.927,178.28 404.76,178.113 403.5,177C 404.956,176.577 405.456,175.744 405,174.5C 404,175.833 403,175.833 402,174.5C 401.508,175.549 401.674,176.549 402.5,177.5C 401.726,178.711 400.893,178.711 400,177.5C 399.283,178.044 398.783,178.711 398.5,179.5C 376.633,160.629 353.633,143.296 329.5,127.5C 330.803,125.368 332.637,123.702 335,122.5C 336.416,123.573 337.75,123.573 339,122.5C 340.465,124.915 342.632,125.915 345.5,125.5 Z"/></g>
<g><path style="opacity:0.889" fill="#6e0efe" d="M 411.5,177.5 C 431.533,195.199 450.2,214.199 467.5,234.5C 466.85,234.804 466.183,235.137 465.5,235.5C 464.086,234.535 463.253,233.535 463,232.5C 460.36,233.86 460.193,235.193 462.5,236.5C 462,236.833 461.5,237.167 461,237.5C 459.524,234.568 457.857,234.234 456,236.5C 455.5,236 455,235.5 454.5,235C 455.956,234.577 456.456,233.744 456,232.5C 454.665,233.08 453.498,233.413 452.5,233.5C 434.833,215.167 416.833,197.167 398.5,179.5C 398.783,178.711 399.283,178.044 400,177.5C 400.893,178.711 401.726,178.711 402.5,177.5C 401.674,176.549 401.508,175.549 402,174.5C 403,175.833 404,175.833 405,174.5C 405.456,175.744 404.956,176.577 403.5,177C 404.76,178.113 405.927,178.28 407,177.5C 409.266,181.334 409.933,181.001 409,176.5C 409.671,177.252 410.504,177.586 411.5,177.5 Z"/></g>
<g><path style="opacity:0.89" fill="#7010fd" d="M 467.5,234.5 C 468.803,236.142 470.136,237.809 471.5,239.5C 471.189,240.478 470.522,241.145 469.5,241.5C 468.833,240.167 468.167,238.833 467.5,237.5C 464.302,238.987 461.302,239.987 458.5,240.5C 455.781,238.781 453.781,236.447 452.5,233.5C 453.498,233.413 454.665,233.08 456,232.5C 456.456,233.744 455.956,234.577 454.5,235C 455,235.5 455.5,236 456,236.5C 457.857,234.234 459.524,234.568 461,237.5C 461.5,237.167 462,236.833 462.5,236.5C 460.193,235.193 460.36,233.86 463,232.5C 463.253,233.535 464.086,234.535 465.5,235.5C 466.183,235.137 466.85,234.804 467.5,234.5 Z"/></g>
<g><path style="opacity:0.887" fill="#7111fd" d="M 471.5,239.5 C 480.566,249.569 488.899,260.236 496.5,271.5C 496.631,272.376 496.298,273.043 495.5,273.5C 495.984,272.219 495.317,271.219 493.5,270.5C 493.013,269.527 492.513,268.527 492,267.5C 491.155,270.412 489.488,271.412 487,270.5C 486.805,271.819 486.972,273.153 487.5,274.5C 486.833,274.5 486.167,274.5 485.5,274.5C 476.53,263.191 467.53,251.858 458.5,240.5C 461.302,239.987 464.302,238.987 467.5,237.5C 468.167,238.833 468.833,240.167 469.5,241.5C 470.522,241.145 471.189,240.478 471.5,239.5 Z"/></g>
<g><path style="opacity:0.885" fill="#7314fd" d="M 493.5,270.5 C 495.317,271.219 495.984,272.219 495.5,273.5C 496.298,273.043 496.631,272.376 496.5,271.5C 511.244,290.638 524.244,310.972 535.5,332.5C 535.225,334.842 534.392,334.842 533,332.5C 531.415,333.376 530.415,334.709 530,336.5C 529.28,334.888 529.446,333.388 530.5,332C 530.167,331.833 529.833,331.667 529.5,331.5C 528.719,332.729 528.219,334.062 528,335.5C 527.667,334.5 527.333,333.5 527,332.5C 525.855,333.684 524.688,333.684 523.5,332.5C 511.344,312.861 498.677,293.528 485.5,274.5C 486.167,274.5 486.833,274.5 487.5,274.5C 486.972,273.153 486.805,271.819 487,270.5C 489.488,271.412 491.155,270.412 492,267.5C 492.513,268.527 493.013,269.527 493.5,270.5 Z"/></g>
<g><path style="opacity:1" fill="#7211fd" d="M 493.5,270.5 C 493.352,274.555 492.352,275.055 490.5,272C 491.244,270.961 492.244,270.461 493.5,270.5 Z"/></g>
<g><path style="opacity:1" fill="#7212fd" d="M 487.5,274.5 C 488.15,274.196 488.817,273.863 489.5,273.5C 490.354,274.522 491.354,275.355 492.5,276C 489.986,278.319 488.319,277.819 487.5,274.5 Z"/></g>
<g><path style="opacity:0.894" fill="#7817fc" d="M 535.5,332.5 C 546.068,349.636 555.068,367.636 562.5,386.5C 562.539,387.756 562.039,388.756 561,389.5C 559.088,388.308 557.088,387.308 555,386.5C 553.513,387.253 553.346,388.086 554.5,389C 553.906,389.464 553.239,389.631 552.5,389.5C 543.634,370.102 533.968,351.102 523.5,332.5C 524.688,333.684 525.855,333.684 527,332.5C 527.333,333.5 527.667,334.5 528,335.5C 528.219,334.062 528.719,332.729 529.5,331.5C 529.833,331.667 530.167,331.833 530.5,332C 529.446,333.388 529.28,334.888 530,336.5C 530.415,334.709 531.415,333.376 533,332.5C 534.392,334.842 535.225,334.842 535.5,332.5 Z"/></g>
<g><path style="opacity:0.891" fill="#7b19fb" d="M 562.5,386.5 C 570.233,402.648 576.9,419.315 582.5,436.5C 581.12,437.706 579.953,437.373 579,435.5C 578.23,436.598 577.397,436.598 576.5,435.5C 575.918,434.069 575.085,432.736 574,431.5C 573.34,433.324 572.173,434.657 570.5,435.5C 565.057,419.948 559.057,404.614 552.5,389.5C 553.239,389.631 553.906,389.464 554.5,389C 553.346,388.086 553.513,387.253 555,386.5C 557.088,387.308 559.088,388.308 561,389.5C 562.039,388.756 562.539,387.756 562.5,386.5 Z"/></g>
<g><path style="opacity:0.884" fill="#7d1afb" d="M 576.5,435.5 C 576.586,436.496 576.252,437.329 575.5,438C 576.167,438.333 576.833,438.667 577.5,439C 576.354,439.645 575.354,440.478 574.5,441.5C 573.817,441.137 573.15,440.804 572.5,440.5C 571.833,438.833 571.167,437.167 570.5,435.5C 572.173,434.657 573.34,433.324 574,431.5C 575.085,432.736 575.918,434.069 576.5,435.5 Z"/></g>
<g><path style="opacity:0.9" fill="#801cfa" d="M 576.5,435.5 C 577.397,436.598 578.23,436.598 579,435.5C 579.953,437.373 581.12,437.706 582.5,436.5C 591.703,463.31 599.036,490.643 604.5,518.5C 601.813,517.939 601.813,518.606 604.5,520.5C 603.032,521.779 602.365,523.446 602.5,525.5C 603.5,525.5 604.5,525.5 605.5,525.5C 605.833,526.167 606.167,526.833 606.5,527.5C 605.778,527.918 605.278,528.584 605,529.5C 604.25,528.874 603.416,528.374 602.5,528C 602.833,527.667 603.167,527.333 603.5,527C 601.067,525.87 598.734,524.704 596.5,523.5C 596.715,525.179 596.048,526.179 594.5,526.5C 589.357,497.263 582.024,468.596 572.5,440.5C 573.15,440.804 573.817,441.137 574.5,441.5C 575.354,440.478 576.354,439.645 577.5,439C 576.833,438.667 576.167,438.333 575.5,438C 576.252,437.329 576.586,436.496 576.5,435.5 Z"/></g>
<g><path style="opacity:0.833" fill="#821df9" d="M 604.5,518.5 C 604.5,519.167 604.5,519.833 604.5,520.5C 601.813,518.606 601.813,517.939 604.5,518.5 Z"/></g>
<g><path style="opacity:0.598" fill="#831ef9" d="M 604.5,520.5 C 605.451,521.919 605.784,523.585 605.5,525.5C 604.5,525.5 603.5,525.5 602.5,525.5C 602.365,523.446 603.032,521.779 604.5,520.5 Z"/></g>
<g><path style="opacity:1" fill="#841ef9" d="M 606.5,527.5 C 606.844,531.894 607.51,536.228 608.5,540.5C 607.542,540.953 606.708,541.619 606,542.5C 605,539.833 604,539.833 603,542.5C 602.667,542.167 602.333,541.833 602,541.5C 600.951,543.107 599.451,543.773 597.5,543.5C 596.819,537.743 595.819,532.077 594.5,526.5C 596.048,526.179 596.715,525.179 596.5,523.5C 598.734,524.704 601.067,525.87 603.5,527C 603.167,527.333 602.833,527.667 602.5,528C 603.416,528.374 604.25,528.874 605,529.5C 605.278,528.584 605.778,527.918 606.5,527.5 Z"/></g>
<g><path style="opacity:0.905" fill="#861ff9" d="M 608.5,540.5 C 609.874,549.122 610.874,557.788 611.5,566.5C 610.022,568.24 608.356,569.073 606.5,569C 607.517,570.049 607.684,571.216 607,572.5C 605.421,571.2 604.255,571.534 603.5,573.5C 602.833,573.5 602.167,573.5 601.5,573.5C 600.493,563.442 599.16,553.442 597.5,543.5C 599.451,543.773 600.951,543.107 602,541.5C 602.333,541.833 602.667,542.167 603,542.5C 604,539.833 605,539.833 606,542.5C 606.708,541.619 607.542,540.953 608.5,540.5 Z"/></g>
<g><path style="opacity:0.968" fill="#871ff8" d="M 611.5,566.5 C 612.31,570.776 612.977,575.109 613.5,579.5C 611.839,575.411 609.339,574.745 606,577.5C 603.266,576.638 603.099,575.805 605.5,575C 604.584,574.722 603.918,574.222 603.5,573.5C 604.255,571.534 605.421,571.2 607,572.5C 607.684,571.216 607.517,570.049 606.5,569C 608.356,569.073 610.022,568.24 611.5,566.5 Z"/></g>
<g><path style="opacity:0.914" fill="#8820f8" d="M 601.5,573.5 C 602.167,573.5 602.833,573.5 603.5,573.5C 603.918,574.222 604.584,574.722 605.5,575C 603.099,575.805 603.266,576.638 606,577.5C 609.339,574.745 611.839,575.411 613.5,579.5C 614.167,590.167 614.833,600.833 615.5,611.5C 612.612,611.78 611.112,610.447 611,607.5C 609.312,608.325 609.145,609.325 610.5,610.5C 608.626,613.519 606.626,613.852 604.5,611.5C 603.853,598.799 602.853,586.133 601.5,573.5 Z"/></g>
<g><path style="opacity:0.919" fill="#8c21f7" d="M 615.5,611.5 C 615.5,611.833 615.5,612.167 615.5,612.5C 612.833,613.5 612.833,614.5 615.5,615.5C 615.667,635.169 615.5,654.836 615,674.5C 614.826,679.351 614.326,684.018 613.5,688.5C 612.739,687.609 611.739,686.942 610.5,686.5C 610.412,687.922 610.412,689.422 610.5,691C 609.251,691.74 608.251,691.573 607.5,690.5C 608.547,689.922 608.38,689.256 607,688.5C 606.005,689.066 605.172,689.733 604.5,690.5C 603.833,690.5 603.167,690.5 602.5,690.5C 604.831,664.221 605.498,637.887 604.5,611.5C 606.626,613.852 608.626,613.519 610.5,610.5C 609.145,609.325 609.312,608.325 611,607.5C 611.112,610.447 612.612,611.78 615.5,611.5 Z"/></g>
<g><path style="opacity:0.529" fill="#8920f8" d="M 615.5,612.5 C 615.5,613.5 615.5,614.5 615.5,615.5C 612.833,614.5 612.833,613.5 615.5,612.5 Z"/></g>
<g><path style="opacity:0.905" fill="#9222f6" d="M 613.5,688.5 C 611.943,714.069 608.609,739.402 603.5,764.5C 602.85,764.804 602.183,765.137 601.5,765.5C 600.719,764.271 600.219,762.938 600,761.5C 598.542,764.129 596.375,765.795 593.5,766.5C 593.737,765.209 593.404,764.209 592.5,763.5C 597.327,739.375 600.661,715.041 602.5,690.5C 603.167,690.5 603.833,690.5 604.5,690.5C 604.369,691.239 604.536,691.906 605,692.5C 605.708,691.619 606.542,690.953 607.5,690.5C 608.251,691.573 609.251,691.74 610.5,691C 610.412,689.422 610.412,687.922 610.5,686.5C 611.739,686.942 612.739,687.609 613.5,688.5 Z"/></g>
<g><path style="opacity:1" fill="#8f21f6" d="M 607.5,690.5 C 606.542,690.953 605.708,691.619 605,692.5C 604.536,691.906 604.369,691.239 604.5,690.5C 605.172,689.733 606.005,689.066 607,688.5C 608.38,689.256 608.547,689.922 607.5,690.5 Z"/></g>
<g><path style="opacity:0.9" fill="#9923f4" d="M 603.5,764.5 C 597.056,795.163 588.389,825.163 577.5,854.5C 574.54,855.032 574.207,855.699 576.5,856.5C 576.5,856.833 576.5,857.167 576.5,857.5C 574.99,858.728 573.49,858.728 572,857.5C 571.383,858.449 571.549,859.282 572.5,860C 570.17,861.075 568.837,862.575 568.5,864.5C 566.694,863.141 565.194,863.475 564,865.5C 564.355,864.041 564.189,862.707 563.5,861.5C 563.5,861.167 563.5,860.833 563.5,860.5C 564.75,860.577 565.583,861.244 566,862.5C 569.007,860.287 568.507,858.62 564.5,857.5C 575.923,828.23 584.923,798.23 591.5,767.5C 592.492,767.672 593.158,767.338 593.5,766.5C 596.375,765.795 598.542,764.129 600,761.5C 600.219,762.938 600.719,764.271 601.5,765.5C 602.183,765.137 602.85,764.804 603.5,764.5 Z"/></g>
<g><path style="opacity:0.786" fill="#9523f5" d="M 592.5,763.5 C 593.404,764.209 593.737,765.209 593.5,766.5C 593.158,767.338 592.492,767.672 591.5,767.5C 591.433,766.041 591.766,764.708 592.5,763.5 Z"/></g>
<g><path style="opacity:0.841" fill="#9c23f4" d="M 577.5,854.5 C 577.672,855.492 577.338,856.158 576.5,856.5C 574.207,855.699 574.54,855.032 577.5,854.5 Z"/></g>
<g><path style="opacity:0.91" fill="#9c24f4" d="M 564.5,857.5 C 568.507,858.62 569.007,860.287 566,862.5C 565.583,861.244 564.75,860.577 563.5,860.5C 564.11,859.609 564.443,858.609 564.5,857.5 Z"/></g>
<g><path style="opacity:0.905" fill="#9d24f3" d="M 576.5,857.5 C 573.679,865.797 570.345,873.797 566.5,881.5C 564.438,881.003 562.271,880.67 560,880.5C 558.001,882.253 555.835,883.587 553.5,884.5C 556.851,876.761 560.184,869.095 563.5,861.5C 564.189,862.707 564.355,864.041 564,865.5C 565.194,863.475 566.694,863.141 568.5,864.5C 568.837,862.575 570.17,861.075 572.5,860C 571.549,859.282 571.383,858.449 572,857.5C 573.49,858.728 574.99,858.728 576.5,857.5 Z"/></g>
<g><path style="opacity:0.927" fill="#9e24f3" d="M 566.5,881.5 C 564.774,886.617 562.774,891.617 560.5,896.5C 558.801,896.66 557.134,896.494 555.5,896C 556.993,894.844 556.826,894.01 555,893.5C 553.022,894.906 550.855,895.906 548.5,896.5C 550.168,892.495 551.835,888.495 553.5,884.5C 555.835,883.587 558.001,882.253 560,880.5C 562.271,880.67 564.438,881.003 566.5,881.5 Z"/></g>
<g><path style="opacity:0.862" fill="#9f24f3" d="M 560.5,896.5 C 558.678,900.662 556.678,904.662 554.5,908.5C 553.778,908.082 553.278,907.416 553,906.5C 550.939,907.613 549.939,908.947 550,910.5C 549.5,910.333 549,910.167 548.5,910C 549.833,908.667 549.833,907.333 548.5,906C 546.981,906.331 545.648,906.164 544.5,905.5C 545.075,902.088 546.408,899.088 548.5,896.5C 550.855,895.906 553.022,894.906 555,893.5C 556.826,894.01 556.993,894.844 555.5,896C 557.134,896.494 558.801,896.66 560.5,896.5 Z"/></g>
<g><path style="opacity:0.839" fill="#a024f3" d="M 544.5,905.5 C 545.648,906.164 546.981,906.331 548.5,906C 549.833,907.333 549.833,908.667 548.5,910C 549,910.167 549.5,910.333 550,910.5C 549.939,908.947 550.939,907.613 553,906.5C 553.278,907.416 553.778,908.082 554.5,908.5C 552.104,914.292 549.437,919.959 546.5,925.5C 545.025,924.738 543.691,924.405 542.5,924.5C 545.028,923.184 545.028,922.017 542.5,921C 545.264,919.456 545.097,918.289 542,917.5C 541.51,916.207 541.343,914.873 541.5,913.5C 542.696,914.883 544.53,915.55 547,915.5C 546.689,914.065 546.855,912.732 547.5,911.5C 547,911.167 546.5,910.833 546,910.5C 544.2,911.32 542.366,911.986 540.5,912.5C 541.596,909.968 542.929,907.635 544.5,905.5 Z"/></g>
<g><path style="opacity:0.989" fill="#a024f3" d="M 546.5,925.5 C 544.5,929.167 542.5,932.833 540.5,936.5C 537.326,936.048 536.993,935.048 539.5,933.5C 538.289,932.28 538.289,931.113 539.5,930C 537.807,928.75 536.473,927.25 535.5,925.5C 534.833,925.833 534.167,926.167 533.5,926.5C 535.82,921.86 538.153,917.193 540.5,912.5C 542.366,911.986 544.2,911.32 546,910.5C 546.5,910.833 547,911.167 547.5,911.5C 546.855,912.732 546.689,914.065 547,915.5C 544.53,915.55 542.696,914.883 541.5,913.5C 541.343,914.873 541.51,916.207 542,917.5C 545.097,918.289 545.264,919.456 542.5,921C 545.028,922.017 545.028,923.184 542.5,924.5C 543.691,924.405 545.025,924.738 546.5,925.5 Z"/></g>
<g><path style="opacity:0.93" fill="#a124f2" d="M 535.5,925.5 C 535.586,926.496 535.252,927.329 534.5,928C 536.901,928.805 536.734,929.638 534,930.5C 533.667,930.167 533.333,929.833 533,929.5C 532.727,931.101 532.227,932.601 531.5,934C 532.744,934.456 533.577,933.956 534,932.5C 534.396,934.96 535.563,936.96 537.5,938.5C 536.502,941.028 535.669,941.028 535,938.5C 534.781,939.938 534.281,941.271 533.5,942.5C 532.289,941.726 532.289,940.893 533.5,940C 529.043,935.064 528.043,935.397 530.5,941C 529.328,941.419 528.328,942.085 527.5,943C 528.449,943.617 529.282,943.451 530,942.5C 530.982,943.759 531.315,945.092 531,946.5C 529.559,945.13 527.892,944.13 526,943.5C 525.53,944.577 525.697,945.577 526.5,946.5C 525.222,946.218 524.222,945.551 523.5,944.5C 526.44,938.24 529.774,932.24 533.5,926.5C 534.167,926.167 534.833,925.833 535.5,925.5 Z"/></g>
<g><path style="opacity:1" fill="#a225f2" d="M 535.5,925.5 C 536.473,927.25 537.807,928.75 539.5,930C 538.289,931.113 538.289,932.28 539.5,933.5C 536.993,935.048 537.326,936.048 540.5,936.5C 537.737,941.701 534.737,946.701 531.5,951.5C 531.631,950.761 531.464,950.094 531,949.5C 529.368,948.472 527.868,947.472 526.5,946.5C 525.697,945.577 525.53,944.577 526,943.5C 527.892,944.13 529.559,945.13 531,946.5C 531.315,945.092 530.982,943.759 530,942.5C 529.282,943.451 528.449,943.617 527.5,943C 528.328,942.085 529.328,941.419 530.5,941C 528.043,935.397 529.043,935.064 533.5,940C 532.289,940.893 532.289,941.726 533.5,942.5C 534.281,941.271 534.781,939.938 535,938.5C 535.669,941.028 536.502,941.028 537.5,938.5C 535.563,936.96 534.396,934.96 534,932.5C 533.577,933.956 532.744,934.456 531.5,934C 532.227,932.601 532.727,931.101 533,929.5C 533.333,929.833 533.667,930.167 534,930.5C 536.734,929.638 536.901,928.805 534.5,928C 535.252,927.329 535.586,926.496 535.5,925.5 Z"/></g>
<g><path style="opacity:0.869" fill="#a224f2" d="M 523.5,944.5 C 524.222,945.551 525.222,946.218 526.5,946.5C 527.868,947.472 529.368,948.472 531,949.5C 531.464,950.094 531.631,950.761 531.5,951.5C 531.25,953.674 530.25,955.341 528.5,956.5C 528.565,956.062 528.399,955.728 528,955.5C 527.25,956.126 526.416,956.626 525.5,957C 526.604,958.131 526.271,958.965 524.5,959.5C 522.043,957.999 522.043,956.332 524.5,954.5C 526.078,953.702 527.744,953.202 529.5,953C 529.273,951.865 528.94,950.698 528.5,949.5C 527.012,951.271 525.179,952.604 523,953.5C 521.51,952.272 520.01,952.272 518.5,953.5C 519.774,950.24 521.44,947.24 523.5,944.5 Z"/></g>
<g><path style="opacity:0.953" fill="#a325f2" d="M 528.5,956.5 C 526.261,961.407 523.594,966.074 520.5,970.5C 519.07,970.421 517.736,970.754 516.5,971.5C 515.833,970.5 515.167,969.5 514.5,968.5C 513.914,968.709 513.414,969.043 513,969.5C 512.289,967.633 512.789,966.133 514.5,965C 513.619,964.292 512.953,963.458 512.5,962.5C 514.265,959.291 516.265,956.291 518.5,953.5C 520.01,952.272 521.51,952.272 523,953.5C 525.179,952.604 527.012,951.271 528.5,949.5C 528.94,950.698 529.273,951.865 529.5,953C 527.744,953.202 526.078,953.702 524.5,954.5C 522.043,956.332 522.043,957.999 524.5,959.5C 526.271,958.965 526.604,958.131 525.5,957C 526.416,956.626 527.25,956.126 528,955.5C 528.399,955.728 528.565,956.062 528.5,956.5 Z"/></g>
<g><path style="opacity:0.971" fill="#a424f2" d="M 512.5,962.5 C 512.953,963.458 513.619,964.292 514.5,965C 512.789,966.133 512.289,967.633 513,969.5C 513.414,969.043 513.914,968.709 514.5,968.5C 515.167,969.5 515.833,970.5 516.5,971.5C 517.736,970.754 519.07,970.421 520.5,970.5C 517.5,975.167 514.5,979.833 511.5,984.5C 509.589,984.574 508.422,985.574 508,987.5C 507.484,984.966 506.317,982.8 504.5,981C 505.833,980.333 507.167,979.667 508.5,979C 507.167,978.667 505.833,978.333 504.5,978C 505,977.5 505.5,977 506,976.5C 508.464,977.526 510.298,976.692 511.5,974C 511,973.5 510.5,973 510,972.5C 509.577,973.956 508.744,974.456 507.5,974C 508.67,972.245 510.337,971.245 512.5,971C 511.747,969.513 510.914,969.346 510,970.5C 509.517,969.552 509.351,968.552 509.5,967.5C 510.263,965.632 511.263,963.965 512.5,962.5 Z"/></g>
<g><path style="opacity:0.882" fill="#a425f2" d="M 509.5,967.5 C 509.351,968.552 509.517,969.552 510,970.5C 510.914,969.346 511.747,969.513 512.5,971C 510.337,971.245 508.67,972.245 507.5,974C 508.744,974.456 509.577,973.956 510,972.5C 510.5,973 511,973.5 511.5,974C 510.298,976.692 508.464,977.526 506,976.5C 505.5,977 505,977.5 504.5,978C 505.833,978.333 507.167,978.667 508.5,979C 507.167,979.667 505.833,980.333 504.5,981C 506.317,982.8 507.484,984.966 508,987.5C 508.422,985.574 509.589,984.574 511.5,984.5C 509.066,988.382 506.399,992.048 503.5,995.5C 502.355,994.207 502.689,993.041 504.5,992C 502.955,990.631 501.289,990.798 499.5,992.5C 499.709,993.086 500.043,993.586 500.5,994C 499,994.833 497.833,996 497,997.5C 497,996.167 497,994.833 497,993.5C 495.295,996.261 493.129,996.927 490.5,995.5C 496.846,986.13 503.18,976.796 509.5,967.5 Z"/></g>
<g><path style="opacity:0.85" fill="#a524f1" d="M 503.5,995.5 C 502.189,998.135 500.522,1000.47 498.5,1002.5C 498.196,1001.85 497.863,1001.18 497.5,1000.5C 498.811,999.742 499.311,998.742 499,997.5C 497.244,998.548 495.41,998.548 493.5,997.5C 492.353,997.818 491.519,998.484 491,999.5C 490.329,998.748 489.496,998.414 488.5,998.5C 488.427,996.973 489.094,995.973 490.5,995.5C 493.129,996.927 495.295,996.261 497,993.5C 497,994.833 497,996.167 497,997.5C 497.833,996 499,994.833 500.5,994C 500.043,993.586 499.709,993.086 499.5,992.5C 501.289,990.798 502.955,990.631 504.5,992C 502.689,993.041 502.355,994.207 503.5,995.5 Z"/></g>
<g><path style="opacity:0.905" fill="#a525f1" d="M 498.5,1002.5 C 496.735,1001.21 494.902,1000.21 493,999.5C 491.667,1000.83 490.333,1000.83 489,999.5C 488.833,999.833 488.667,1000.17 488.5,1000.5C 489.376,1001.25 490.376,1001.75 491.5,1002C 488.99,1005.49 489.49,1005.99 493,1003.5C 494.762,1003.94 494.595,1004.44 492.5,1005C 493.527,1005.51 494.527,1006.01 495.5,1006.5C 495.262,1008.4 494.262,1009.74 492.5,1010.5C 492.992,1006.71 492.159,1006.04 490,1008.5C 489.333,1005.83 488.667,1005.83 488,1008.5C 487.001,1004.76 485.668,1004.76 484,1008.5C 483.329,1007.75 482.496,1007.41 481.5,1007.5C 483.482,1004.19 485.815,1001.19 488.5,998.5C 489.496,998.414 490.329,998.748 491,999.5C 491.519,998.484 492.353,997.818 493.5,997.5C 495.41,998.548 497.244,998.548 499,997.5C 499.311,998.742 498.811,999.742 497.5,1000.5C 497.863,1001.18 498.196,1001.85 498.5,1002.5 Z"/></g>
<g><path style="opacity:0.974" fill="#a524f1" d="M 498.5,1002.5 C 497.974,1004.23 496.974,1005.56 495.5,1006.5C 494.527,1006.01 493.527,1005.51 492.5,1005C 494.595,1004.44 494.762,1003.94 493,1003.5C 489.49,1005.99 488.99,1005.49 491.5,1002C 490.376,1001.75 489.376,1001.25 488.5,1000.5C 488.667,1000.17 488.833,999.833 489,999.5C 490.333,1000.83 491.667,1000.83 493,999.5C 494.902,1000.21 496.735,1001.21 498.5,1002.5 Z"/></g>
<g><path style="opacity:0.924" fill="#a725f1" d="M 492.5,1010.5 C 487.984,1017.53 482.984,1024.2 477.5,1030.5C 476.587,1028.91 476.587,1027.41 477.5,1026C 476.216,1025.32 475.049,1025.48 474,1026.5C 472.857,1023.08 471.19,1022.75 469,1025.5C 468.601,1025.27 468.435,1024.94 468.5,1024.5C 472.481,1018.52 476.814,1012.86 481.5,1007.5C 482.496,1007.41 483.329,1007.75 484,1008.5C 485.668,1004.76 487.001,1004.76 488,1008.5C 488.667,1005.83 489.333,1005.83 490,1008.5C 492.159,1006.04 492.992,1006.71 492.5,1010.5 Z"/></g>
<g><path style="opacity:0.944" fill="#a725f1" d="M 477.5,1030.5 C 475.471,1032.86 473.471,1035.19 471.5,1037.5C 470.442,1036.4 469.608,1035.07 469,1033.5C 468.667,1034.83 468.333,1036.17 468,1037.5C 466.509,1036 464.676,1035.16 462.5,1035C 463.833,1034.33 463.833,1033.67 462.5,1033C 463.833,1032.33 465.167,1031.67 466.5,1031C 465.552,1030.52 464.552,1030.35 463.5,1030.5C 464.701,1028.09 466.367,1026.09 468.5,1024.5C 468.435,1024.94 468.601,1025.27 469,1025.5C 471.19,1022.75 472.857,1023.08 474,1026.5C 475.049,1025.48 476.216,1025.32 477.5,1026C 476.587,1027.41 476.587,1028.91 477.5,1030.5 Z"/></g>
<g><path style="opacity:0.671" fill="#a825f1" d="M 463.5,1030.5 C 464.552,1030.35 465.552,1030.52 466.5,1031C 465.167,1031.67 463.833,1032.33 462.5,1033C 463.833,1033.67 463.833,1034.33 462.5,1035C 464.676,1035.16 466.509,1036 468,1037.5C 468.333,1036.17 468.667,1034.83 469,1033.5C 469.608,1035.07 470.442,1036.4 471.5,1037.5C 468.514,1041.82 465.18,1045.82 461.5,1049.5C 459.956,1046.03 458.29,1045.87 456.5,1049C 457.738,1048.92 458.738,1049.09 459.5,1049.5C 457.602,1050.73 455.935,1050.4 454.5,1048.5C 453.185,1050.32 451.685,1051.98 450,1053.5C 448.795,1052.93 447.628,1052.26 446.5,1051.5C 447.758,1052.02 448.758,1051.35 449.5,1049.5C 448.8,1049.21 448.133,1048.88 447.5,1048.5C 452.491,1042.18 457.824,1036.18 463.5,1030.5 Z"/></g>
<g><path style="opacity:0.928" fill="#a925f1" d="M 461.5,1049.5 C 456.185,1056.45 450.185,1062.78 443.5,1068.5C 442.737,1067.73 441.737,1067.23 440.5,1067C 442.827,1065.63 444.827,1063.29 446.5,1060C 444.591,1059.55 443.424,1060.39 443,1062.5C 442.15,1061.58 441.15,1061.58 440,1062.5C 438.251,1062.25 437.418,1061.25 437.5,1059.5C 440.862,1055.81 444.195,1052.14 447.5,1048.5C 448.133,1048.88 448.8,1049.21 449.5,1049.5C 448.758,1051.35 447.758,1052.02 446.5,1051.5C 447.628,1052.26 448.795,1052.93 450,1053.5C 451.685,1051.98 453.185,1050.32 454.5,1048.5C 455.935,1050.4 457.602,1050.73 459.5,1049.5C 458.738,1049.09 457.738,1048.92 456.5,1049C 458.29,1045.87 459.956,1046.03 461.5,1049.5 Z"/></g>
<g><path style="opacity:0.975" fill="#a925f0" d="M 437.5,1059.5 C 437.418,1061.25 438.251,1062.25 440,1062.5C 441.15,1061.58 442.15,1061.58 443,1062.5C 443.424,1060.39 444.591,1059.55 446.5,1060C 444.827,1063.29 442.827,1065.63 440.5,1067C 441.737,1067.23 442.737,1067.73 443.5,1068.5C 439.5,1073.17 435.167,1077.5 430.5,1081.5C 429.596,1080.79 429.263,1079.79 429.5,1078.5C 427.856,1078.29 426.356,1078.62 425,1079.5C 424.411,1077.14 422.911,1076.14 420.5,1076.5C 425.833,1070.5 431.5,1064.83 437.5,1059.5 Z"/></g>
<g><path style="opacity:0.941" fill="#aa25f0" d="M 420.5,1076.5 C 422.911,1076.14 424.411,1077.14 425,1079.5C 426.356,1078.62 427.856,1078.29 429.5,1078.5C 429.263,1079.79 429.596,1080.79 430.5,1081.5C 424.132,1088.87 417.132,1095.54 409.5,1101.5C 409.598,1100.45 409.598,1099.28 409.5,1098C 411.559,1096.81 411.726,1095.65 410,1094.5C 408.118,1095.09 407.118,1096.43 407,1098.5C 406.667,1098.17 406.333,1097.83 406,1097.5C 405.46,1099.13 405.96,1100.47 407.5,1101.5C 406.675,1102.39 405.675,1102.72 404.5,1102.5C 404.762,1101.02 404.429,1099.69 403.5,1098.5C 403.178,1100.54 401.844,1102.21 399.5,1103.5C 400.256,1101.73 400.923,1099.9 401.5,1098C 402.646,1097.24 403.646,1096.57 404.5,1096C 403.944,1094.99 403.278,1094.16 402.5,1093.5C 408.474,1087.86 414.474,1082.19 420.5,1076.5 Z"/></g>
<g><path style="opacity:0.926" fill="#ab25f0" d="M 409.5,1101.5 C 407.105,1104.86 404.105,1107.53 400.5,1109.5C 400.414,1108.5 400.748,1107.67 401.5,1107C 400.027,1106.29 399.36,1105.12 399.5,1103.5C 401.844,1102.21 403.178,1100.54 403.5,1098.5C 404.429,1099.69 404.762,1101.02 404.5,1102.5C 405.675,1102.72 406.675,1102.39 407.5,1101.5C 405.96,1100.47 405.46,1099.13 406,1097.5C 406.333,1097.83 406.667,1098.17 407,1098.5C 407.118,1096.43 408.118,1095.09 410,1094.5C 411.726,1095.65 411.559,1096.81 409.5,1098C 409.598,1099.28 409.598,1100.45 409.5,1101.5 Z"/></g>
<g><path style="opacity:0.867" fill="#ab25f0" d="M 402.5,1093.5 C 403.278,1094.16 403.944,1094.99 404.5,1096C 403.646,1096.57 402.646,1097.24 401.5,1098C 400.923,1099.9 400.256,1101.73 399.5,1103.5C 396.131,1104.48 395.464,1105.98 397.5,1108C 397.333,1108.5 397.167,1109 397,1109.5C 395.251,1107.38 393.418,1105.38 391.5,1103.5C 394.936,1099.94 398.603,1096.61 402.5,1093.5 Z"/></g>
<g><path style="opacity:0.919" fill="#ab24f0" d="M 391.5,1103.5 C 393.418,1105.38 395.251,1107.38 397,1109.5C 397.167,1109 397.333,1108.5 397.5,1108C 395.464,1105.98 396.131,1104.48 399.5,1103.5C 399.36,1105.12 400.027,1106.29 401.5,1107C 400.748,1107.67 400.414,1108.5 400.5,1109.5C 398.393,1111.73 396.06,1113.73 393.5,1115.5C 393.844,1114.32 393.178,1113.48 391.5,1113C 393.615,1112.58 394.448,1111.41 394,1109.5C 392.381,1108.92 390.548,1108.92 388.5,1109.5C 387.818,1108.76 387.151,1108.09 386.5,1107.5C 387.579,1105.46 389.246,1104.12 391.5,1103.5 Z"/></g>
<g><path style="opacity:1" fill="#ac25f0" d="M 386.5,1107.5 C 387.151,1108.09 387.818,1108.76 388.5,1109.5C 390.548,1108.92 392.381,1108.92 394,1109.5C 394.448,1111.41 393.615,1112.58 391.5,1113C 393.178,1113.48 393.844,1114.32 393.5,1115.5C 391.909,1117.63 389.909,1119.3 387.5,1120.5C 387.594,1117.46 386.094,1115.79 383,1115.5C 382.25,1116.13 381.416,1116.63 380.5,1117C 381.938,1117.22 383.271,1117.72 384.5,1118.5C 383.726,1119.71 382.893,1119.71 382,1118.5C 381.667,1119.17 381.333,1119.83 381,1120.5C 376.937,1116.62 376.103,1116.79 378.5,1121C 376.892,1121.66 375.725,1121.16 375,1119.5C 374.333,1120.83 373.667,1122.17 373,1123.5C 372.148,1122.43 371.315,1121.43 370.5,1120.5C 375.794,1116.18 381.127,1111.84 386.5,1107.5 Z"/></g>
<g><path style="opacity:0.948" fill="#ac24f0" d="M 387.5,1120.5 C 382.123,1125.21 376.457,1129.54 370.5,1133.5C 369.057,1132.66 368.057,1131.33 367.5,1129.5C 367.412,1130.92 367.412,1132.42 367.5,1134C 365.806,1135.73 364.639,1135.23 364,1132.5C 362.919,1134.77 361.419,1134.93 359.5,1133C 362.118,1131.26 361.785,1130.09 358.5,1129.5C 362.462,1126.51 366.462,1123.51 370.5,1120.5C 371.315,1121.43 372.148,1122.43 373,1123.5C 373.667,1122.17 374.333,1120.83 375,1119.5C 375.725,1121.16 376.892,1121.66 378.5,1121C 376.103,1116.79 376.937,1116.62 381,1120.5C 381.333,1119.83 381.667,1119.17 382,1118.5C 382.893,1119.71 383.726,1119.71 384.5,1118.5C 383.271,1117.72 381.938,1117.22 380.5,1117C 381.416,1116.63 382.25,1116.13 383,1115.5C 386.094,1115.79 387.594,1117.46 387.5,1120.5 Z"/></g>
<g><path style="opacity:0.901" fill="#ad24f0" d="M 358.5,1129.5 C 361.785,1130.09 362.118,1131.26 359.5,1133C 361.419,1134.93 362.919,1134.77 364,1132.5C 364.639,1135.23 365.806,1135.73 367.5,1134C 367.412,1132.42 367.412,1130.92 367.5,1129.5C 368.057,1131.33 369.057,1132.66 370.5,1133.5C 361.372,1141.23 351.706,1148.23 341.5,1154.5C 340.306,1151.98 339.14,1151.98 338,1154.5C 337.692,1153.69 337.192,1153.03 336.5,1152.5C 335.304,1152.85 335.304,1153.35 336.5,1154C 335.175,1153.85 334.008,1154.02 333,1154.5C 332,1153.17 331,1151.83 330,1150.5C 329.333,1151.83 328.667,1153.17 328,1154.5C 326.272,1153.65 326.105,1152.65 327.5,1151.5C 337.62,1143.93 347.953,1136.6 358.5,1129.5 Z"/></g>
<g><path style="opacity:0.906" fill="#ae24ef" d="M 341.5,1154.5 C 332.039,1161.62 322.039,1167.95 311.5,1173.5C 312.197,1171.93 312.53,1170.43 312.5,1169C 311.175,1169.15 310.008,1168.98 309,1168.5C 307.324,1169.06 305.991,1170.06 305,1171.5C 304.517,1170.55 304.351,1169.55 304.5,1168.5C 305.552,1168.65 306.552,1168.48 307.5,1168C 305.563,1167.88 304.23,1167.05 303.5,1165.5C 311.528,1160.82 319.528,1156.16 327.5,1151.5C 326.105,1152.65 326.272,1153.65 328,1154.5C 328.667,1153.17 329.333,1151.83 330,1150.5C 331,1151.83 332,1153.17 333,1154.5C 334.008,1154.02 335.175,1153.85 336.5,1154C 335.304,1153.35 335.304,1152.85 336.5,1152.5C 337.192,1153.03 337.692,1153.69 338,1154.5C 339.14,1151.98 340.306,1151.98 341.5,1154.5 Z"/></g>
<g><path style="opacity:0.904" fill="#b024ef" d="M 303.5,1165.5 C 304.23,1167.05 305.563,1167.88 307.5,1168C 306.552,1168.48 305.552,1168.65 304.5,1168.5C 304.351,1169.55 304.517,1170.55 305,1171.5C 305.991,1170.06 307.324,1169.06 309,1168.5C 310.008,1168.98 311.175,1169.15 312.5,1169C 312.53,1170.43 312.197,1171.93 311.5,1173.5C 215.516,1230.5 111.516,1258.83 -0.5,1258.5C -0.5,1255.17 -0.5,1251.83 -0.5,1248.5C 99.0825,1247.44 193.083,1224.1 281.5,1178.5C 282.15,1178.8 282.817,1179.14 283.5,1179.5C 285.46,1178.28 287.293,1176.94 289,1175.5C 290.011,1176.34 291.178,1176.67 292.5,1176.5C 292.926,1174.86 292.926,1173.53 292.5,1172.5C 295.961,1169.93 299.628,1167.6 303.5,1165.5 Z"/></g>
<g><path style="opacity:0.613" fill="#af24ef" d="M 292.5,1172.5 C 292.926,1173.53 292.926,1174.86 292.5,1176.5C 291.178,1176.67 290.011,1176.34 289,1175.5C 287.293,1176.94 285.46,1178.28 283.5,1179.5C 282.817,1179.14 282.15,1178.8 281.5,1178.5C 284.678,1175.74 288.345,1173.74 292.5,1172.5 Z"/></g>
<g><path style="opacity:1" fill="#af25ef" d="M 278.5,1181.5 C 278.56,1180.96 278.893,1180.62 279.5,1180.5C 280.23,1181.93 281.23,1183.1 282.5,1184C 280,1185.17 278.167,1187 277,1189.5C 276.691,1188.23 276.191,1187.07 275.5,1186C 275.802,1184.35 277.136,1183.01 279.5,1182C 279.272,1181.6 278.938,1181.43 278.5,1181.5 Z"/></g>
</svg>
